<?xml version="1.0" encoding="utf-8"?>
<!-- Designed by Vexels.com - 2020 All Rights Reserved - https://vexels.com/terms-and-conditions/  -->
<svg version="1.1" id="Capa_1" xmlns="http://www.w3.org/2000/svg" xmlns:xlink="http://www.w3.org/1999/xlink" x="0px" y="0px"
	 viewBox="0 0 1200 1200" enable-background="new 0 0 1200 1200" xml:space="preserve">
<g>
	<path fill="#5CA587" d="M1075.633,525.634C1075.633,262.948,862.685,50,600,50S124.367,262.948,124.367,525.634
		c0,223.357,153.972,410.722,361.555,461.828l82.896,147.596c10.867,19.35,38.47,20.047,50.301,1.272l93.598-148.536
		C920.989,937.173,1075.633,749.478,1075.633,525.634z M383.659,373.519c0-119.481,96.859-216.34,216.34-216.34h0
		c119.481,0,216.34,96.859,216.34,216.34v164.41c0,117.579-91.419,217.962-208.933,221.886
		c-122.86,4.103-223.749-94.275-223.749-216.217V373.519z M599.999,929.963c-204.324,0-370.552-166.23-370.552-370.553
		c0-20.278,16.439-36.717,36.717-36.717s36.717,16.439,36.717,36.717c0,163.831,133.286,297.119,297.117,297.119
		S897.118,723.241,897.118,559.41c0-20.278,16.439-36.717,36.717-36.717s36.717,16.439,36.717,36.717
		C970.552,763.733,804.323,929.963,599.999,929.963z"/>
	<path fill="#FFFFFF" d="M933.835,522.693c-20.278,0-36.717,16.439-36.717,36.717c0,163.831-133.288,297.119-297.119,297.119
		S302.882,723.241,302.882,559.41c0-20.278-16.439-36.717-36.717-36.717s-36.717,16.439-36.717,36.717
		c0,204.324,166.228,370.553,370.552,370.553s370.553-166.23,370.553-370.553C970.552,539.131,954.114,522.693,933.835,522.693z"/>
	<path fill="#FFFFFF" d="M607.408,759.815c117.514-3.924,208.933-104.307,208.933-221.886v-164.41
		c0-119.481-96.859-216.34-216.34-216.34h0c-119.481,0-216.34,96.859-216.34,216.34v170.079
		C383.659,665.54,484.548,763.918,607.408,759.815z M723.389,417.829c22.544,0,40.819,18.275,40.819,40.819
		c0,22.544-18.275,40.819-40.819,40.819c-22.544,0-40.819-18.276-40.819-40.819C682.57,436.104,700.845,417.829,723.389,417.829z
		 M600,261.488c22.544,0,40.819,18.276,40.819,40.819c0,22.544-18.275,40.819-40.819,40.819c-22.544,0-40.819-18.275-40.819-40.819
		C559.181,279.764,577.456,261.488,600,261.488z M600,573.991c22.544,0,40.819,18.275,40.819,40.819S622.544,655.629,600,655.629
		c-22.544,0-40.819-18.275-40.819-40.819S577.456,573.991,600,573.991z M435.792,458.648c0-22.544,18.275-40.819,40.819-40.819
		c22.544,0,40.819,18.275,40.819,40.819c0,22.544-18.275,40.819-40.819,40.819C454.067,499.467,435.792,481.191,435.792,458.648z"/>
	<circle fill="#5CA587" cx="600" cy="614.81" r="40.819"/>
	<circle fill="#5CA587" cx="600" cy="302.307" r="40.819"/>
	
		<ellipse transform="matrix(0.9239 -0.3827 0.3827 0.9239 -139.2369 217.3033)" fill="#5CA587" cx="476.611" cy="458.648" rx="40.819" ry="40.819"/>
	
		<ellipse transform="matrix(0.1602 -0.9871 0.9871 0.1602 154.7899 1099.2292)" fill="#5CA587" cx="723.389" cy="458.648" rx="40.819" ry="40.819"/>
</g>
</svg>
